<svg xmlns="http://www.w3.org/2000/svg" viewBox="0 0 154 154" width="154" height="154">
  <!-- Background -->
  <rect width="154" height="154" rx="20" fill="#1B1B1B"/>

  <!-- Shield body -->
  <path d="M77 18 L117 34 L117 78 C117 103 97 122 77 130 C57 122 37 103 37 78 L37 34 Z"
        fill="#1565C0" stroke="#1E88E5" stroke-width="2"/>

  <!-- Shield highlight -->
  <path d="M77 24 L111 38 L111 78 C111 100 94 117 77 124"
        fill="none" stroke="#42A5F5" stroke-width="1.5" opacity="0.6"/>

  <!-- Lock body -->
  <rect x="62" y="72" width="30" height="24" rx="4" fill="white" opacity="0.95"/>

  <!-- Lock shackle -->
  <path d="M68 72 L68 62 C68 55 86 55 86 62 L86 72"
        fill="none" stroke="white" stroke-width="5" stroke-linecap="round" opacity="0.95"/>

  <!-- Keyhole -->
  <circle cx="77" cy="82" r="4" fill="#1565C0"/>
  <rect x="75" y="82" width="4" height="7" rx="1" fill="#1565C0"/>

  <!-- "VPN" text -->
  <text x="77" y="148" text-anchor="middle" font-family="-apple-system, Arial, sans-serif"
        font-size="14" font-weight="700" fill="#42A5F5" letter-spacing="2">VPN</text>
</svg>
